Coordinates
version=1
nRows=10
nColumns=33
inDegrees=yes

Units are S.I. units (second, meters, Newtons, ...)
Angles are in degrees.

endheader
time	ground_thorax_rot_x	ground_thorax_rot_y	ground_thorax_rot_z	ground_thorax_tx	ground_thorax_ty	ground_thorax_tz	clav_prot_r	clav_elev_r	scapula_abduction_r	scapula_elevation_r	scapula_upward_rot_r	scapula_winging_r	shoulder_elv_r	plane_of_elev_r	axial_rot_r	elbow_flexion_r	pro_sup_r	wrist_flex_r	wrist_dev_r	clav_prot_l	clav_elev_l	scapula_abduction_l	scapula_elevation_l	scapula_upward_rot_l	scapula_winging_l	shoulder_elv_l	plane_of_elev_l	axial_rot_l	elbow_flexion_l	pro_sup_l	wrist_flex_l	wrist_dev_l
      3.28000000	     39.45661449	      7.72930654	      8.73204676	   -120.46849129	    803.51228258	     -0.20739063	     16.87757773	     42.19353531	     45.00000000	     45.00000000	    -30.46903977	   2076.05020513	  -2271.17432005	    146.20888627	   -131.88781031	   1823.20486746	    181.89517024	     10.40162455	      1.86351414	      8.79034862	    -45.00000000	    -45.00000000	     45.00000000	    -18.25651063	   -988.19012271	  -1009.55936277	     24.01551628	    -16.02444725	   1447.43835036	     25.26579254	     11.58936104	    -21.17066895
      3.29000000	     39.54254321	      8.20674433	      8.78633930	   -116.40894734	    802.13306132	     -0.04207723	     16.60382492	     42.41864670	     45.00000000	     45.00000000	    -30.25385718	   2076.19276056	  -2271.47900428	    146.12445005	   -131.49757945	   1822.99229910	    181.19636341	     10.56661673	      1.56435384	      8.93978044	    -45.00000000	    -45.00000000	     45.00000000	    -18.28920469	   -988.63870973	  -1009.75056237	     23.99006779	    -15.80450235	   1447.39690583	     25.65106394	     11.49492471	    -21.09002937
      3.30000000	     39.71706400	      8.08830814	      8.17746793	   -112.43762783	    800.75702286	      0.09828940	     16.82358286	     42.48689915	     45.00000000	     45.00000000	    -29.34943987	   2076.56974907	  -2271.59424166	    146.21629285	   -131.59180204	   1822.93187938	    180.13637658	     10.72488622	      1.41452344	      8.52854630	    -45.00000000	    -45.00000000	     45.00000000	    -17.51838273	   -989.07582326	  -1010.03686429	     24.05908824	    -15.68787153	   1447.34034825	     26.16757009	     11.76401563	    -21.10167909
      3.31000000	     39.84247236	      8.32430735	      7.94790331	   -108.57053320	    799.39854515	      0.21968140	     16.68746457	     42.65081061	     45.00000000	     45.00000000	    -28.86611556	   2076.76066049	  -2271.83489537	    146.20043321	   -131.42975960	   1822.80253288	    178.66952289	     10.97370037	      1.15807889	      8.53366864	    -45.00000000	    -45.00000000	     45.00000000	    -17.27547404	   -989.53247449	  -1010.28522453	     24.13884020	    -15.30984750	   1447.20965823	     26.62455477	     11.81080846	    -21.04075733
      3.32000000	     39.90750662	      8.58155771	      7.79700288	   -104.82250262	    798.06877799	      0.32889974	     16.62631146	     42.78890807	     45.00000000	     45.00000000	    -28.58815336	   2076.96377142	  -2272.07208115	    146.10313314	   -131.50753685	   1822.68811265	    176.92858858	     11.26615820	      0.90280079	      8.53495314	    -45.00000000	    -45.00000000	     45.00000000	    -17.10193342	   -989.96146650	  -1010.46870662	     24.25477335	    -14.86275030	   1447.08840058	     27.08489395	     11.84181117	    -20.98208595
      3.33000000	     40.11379198	      8.33832006	      7.10204177	   -101.20847082	    796.78620664	      0.44148032	     16.82033316	     42.89307854	     45.00000000	     45.00000000	    -27.62421679	   2077.37719763	  -2272.16540572	    146.24237325	   -132.19220359	   1822.64328516	    174.25740197	     11.64118699	      0.71491688	      8.07041934	    -45.00000000	    -45.00000000	     45.00000000	    -16.24958325	   -990.46169189	  -1010.81776065	     24.28904342	    -14.33174352	   1446.87630380	     27.71978365	     12.14101999	    -20.98839867
      3.34000000	     40.16136387	      8.72484515	      7.18467273	    -97.73337776	    795.55754749	      0.55823263	     16.57210550	     43.04201968	     45.00000000	     45.00000000	    -27.59354696	   2077.49224076	  -2272.48075202	    146.05354316	   -132.43035532	   1822.49020376	    171.39304595	     12.12879516	      0.43502248	      8.31212885	    -45.00000000	    -45.00000000	     45.00000000	    -16.37408137	   -990.82188057	  -1011.04269431	     24.39984386	    -13.74830931	   1446.75584317	     28.19494336	     12.07184993	    -20.91008333
      3.35000000	     40.37373156	      8.48978213	      6.45933430	    -94.39624860	    794.38245580	      0.67798319	     16.82151786	     43.29166205	     45.00000000	     45.00000000	    -26.63684628	   2077.88453423	  -2272.51370758	    146.20723877	   -133.63418547	   1822.38249285	    167.00302676	     12.76018569	      0.26915153	      7.85452228	    -45.00000000	    -45.00000000	     45.00000000	    -15.34346491	   -991.28922199	  -1011.43670610	     24.45419811	    -12.99036823	   1446.52197018	     28.83800071	     12.31328685	    -20.91283136
      3.36000000	     40.43988334	      8.51708558	      6.17639807	    -91.20022699	    793.26491922	      0.80029695	     16.43520788	     42.39719026	     45.00000000	     45.00000000	    -26.71170406	   2078.27071592	  -2271.36012187	    145.32061308	   -165.58664298	   1809.51277978	     28.78878538	     18.35460862	     13.11654354	      7.29362047	    -45.00000000	    -45.00000000	     45.00000000	    -15.39598296	   -991.56194317	  -1011.64721908	     25.08369018	    -10.96280176	   1446.38645637	     32.77403188	     12.23363997	    -21.43629631
      3.37000000	     40.53513350	      8.84409824	      6.16503937	    -88.14756939	    792.20805656	      0.92172222	     16.56659875	     43.17290189	     45.00000000	     45.00000000	    -26.52721760	   2078.37650656	  -2271.71766100	    145.31011645	   -165.40740511	   1809.26072417	     28.86742535	     17.72016267	     13.22869120	      7.89008325	    -45.00000000	    -45.00000000	     45.00000000	    -15.54274822	   -992.16243349	  -1011.78412551	     24.96997617	    -10.60064408	   1446.12025192	     32.13988882	     12.26404830	    -21.14245855
